<svg id="Warstwa_1" data-name="Warstwa 1" xmlns="http://www.w3.org/2000/svg" viewBox="0 0 595.27557 396.8504"><defs><style>.cls-1{fill:none;}.cls-2{fill:#1d1d1b;}.cls-2,.cls-3{fill-rule:evenodd;}.cls-3{fill:#afca0b;}</style></defs><title>ekomat logo</title><rect class="cls-1" width="595.27557" height="396.8504"/><path class="cls-2" d="M445.31549,265.7027h3.75162l-6.4318,29.3034h-3.8934l-.61651-4.0932-.63721-4.2276-1.70108-10.9318c-.1228-.7795-.2554-1.6053-.38812-2.4786-.1247-.87539-.24738-1.7586-.36048-2.6708h-.1055a21.36963,21.36963,0,0,1-.18081,2.3369c-.12281.9887-.2937,2.2325-.52219,3.76071-.37051,2.6325-.87332,5.87109-1.52811,9.7089l-1.4168,8.59549h-3.81681l-5.87118-29.3034H425.245l1.75671,10.48681.77948,5.01609.47391,3.08561c.22909,1.53969.55139,3.325.9794,5.3489h.2189c.18991-1.59561.37811-3.06821.5683-4.40811.1998-1.3476.47589-2.9722.8277-4.8918l2.43982-14.6375h3.64788q1.45455,8.20755,3.70551,23.93741h.10339c.09439-.703.22849-1.5857.39011-2.6325.17059-1.04431.37979-2.25951.64508-3.62811.38949-2.1566.76-4.1417,1.12082-5.9728q.5418-2.73615.8544-4.2472c.864-4.02769,1.38809-6.50639,1.55908-7.4568m-29.9866,12.2451q0-9.21825-4.0932-9.2135c-1.42469,0-2.4979.9119-3.20038,2.7264a17.64258,17.64258,0,0,0-.847,3.0487,18.42006,18.42006,0,0,0-.29358,3.4384Zm-.2189,7.1229h3.809a14.43275,14.43275,0,0,1-1.78562,7.27651,5.76324,5.76324,0,0,1-5.33728,3.13319h-.11481a7.01778,7.01778,0,0,1-6.524-3.9416q-2.17992-3.93135-2.1846-11.7017a25.90567,25.90567,0,0,1,1.8793-9.94509q1.88072-4.57305,6.3837-4.57711,4.4577,0,6.3739,4.4255a24.996,24.996,0,0,1,1.58572,9.5456v1.80481h-12.3006v.9216a21.92777,21.92777,0,0,0,.864,6.64839,5.71253,5.71253,0,0,0,1.32089,2.4692,2.96019,2.96019,0,0,0,2.1561.8464h.22842a3.28357,3.28357,0,0,0,2.47858-1.3784Q415.11209,289.21862,415.11,285.0707Zm-18.24488-30.68929h.28409a2.47935,2.47935,0,0,1,1.83371.72169,3.1808,3.1808,0,0,1,.77948,2.06191,2.25843,2.25843,0,0,1-.2092.9964,3.08057,3.08057,0,0,1-.62588.866,2.65612,2.65612,0,0,1-1.94852.8064,2.70162,2.70162,0,0,1-2.014-4.58839A2.41623,2.41623,0,0,1,396.86511,254.38141Zm1.872,11.32129v29.3034h-3.64758V265.7027Zm-8.71988,8.3783v20.9251h-3.7055V273.7488q0-5.4855-3.41941-5.481h-.1134a3.48456,3.48456,0,0,0-1.85239.48579,4.16264,4.16264,0,0,0-1.3479,1.4054,10.12386,10.12386,0,0,0-1.08282,5.3467v19.5004H374.8479V265.7027h3.64789v2.33861a18.12259,18.12259,0,0,1,2.3363-1.891,6.439,6.439,0,0,1,3.25843-.7796,10.5058,10.5058,0,0,1,1.77557.11511Q390.01059,266.22606,390.01721,274.081Zm-28.0766-5.81319a3.2195,3.2195,0,0,0-3.41922,2.97379c-.21878,1.1387-.4183,2.4018-.57028,3.8188a41.324,41.324,0,0,0-.2381,4.6729c0,.2169-.019.6356-.05752,1.2345-.03629.6069-.05558,1.00631-.05558,1.2155a17.573,17.573,0,0,0,1.18659,7.3148c.78891,1.6509,1.90829,2.4783,3.38061,2.4783h.10538a3.0036,3.0036,0,0,0,2.0603-.7409,4.415,4.415,0,0,0,1.2537-2.1561,29.24528,29.24528,0,0,0,.77951-7.76009V279.5624a33.637,33.637,0,0,0-.80811-8.121Q364.74536,268.26231,361.94061,268.26781ZM354.5683,297.4561h3.64789v.4759q0,5.2266,3.72442,5.2336,4.0866,0,4.0932-5.1298v-5.1472a5.69173,5.69173,0,0,1-4.55951,2.1269h-.1134q-4.84379,0-6.20331-4.4348a35.50929,35.50929,0,0,1-1.36688-10.402q0-14.8599,7.238-14.8638a5.53385,5.53385,0,0,1,4.8898,2.39241h.11532V265.7027h3.70349v31.7534q0,4.81755-1.7666,6.9729c-1.1763,1.4338-3.11581,2.1558-5.80359,2.1558q-7.59406,0-7.59881-8.4918Zm-6.88461-43.07469h.28381a2.479,2.479,0,0,1,1.83371.72169,3.18047,3.18047,0,0,1,.7796,2.06191,2.25843,2.25843,0,0,1-.2092.9964,3.09228,3.09228,0,0,1-.62591.866,2.65706,2.65706,0,0,1-1.9491.8064,2.70139,2.70139,0,0,1-2.01349-4.58839A2.41652,2.41652,0,0,1,347.68369,254.38141Zm1.872,11.32129v29.3034h-3.64788V265.7027Zm-20.2322,13.1649c0,.2668-.019.7696-.05729,1.5202-.03659.7509-.05581,1.2541-.05581,1.5208a29.23682,29.23682,0,0,0,.265,4.0836,18.92512,18.92512,0,0,0,.76029,3.42881c.56061,2.02369,1.701,3.03,3.42871,3.03q4.08961,0,4.0936-10.0491v-3.05829q0-6.76756-1.10981-8.9198a3.41963,3.41963,0,0,0-3.09689-2.156,3.48472,3.48472,0,0,0-3.039,2.04289Q329.3282,272.36091,329.32349,278.8676Zm-3.37128-29.5296h3.64789v18.36931h.1423a4.98066,4.98066,0,0,1,4.53061-2.39241,6.01048,6.01048,0,0,1,5.4046,2.96281q1.86612,2.96278,1.86038,8.83329v3.64761a33.10276,33.10276,0,0,1-1.41479,10.71469,5.413,5.413,0,0,1-5.489,4.0071,5.97571,5.97571,0,0,1-4.89179-2.69749h-.1423v2.22319h-3.64789Zm-3.6955,2.70651-12.01492,39.314h10.8187v3.64759H305.38861l11.9111-39.3712H306.4711v-3.59039Zm-43.664-2.70651v28.2662l.142.0097,7.11319-11.9112h4.2659l-8.7103,13.1649,11.04721,16.1385-4.6922.0094-9.0332-14.038h-.1326v14.0286h-3.64792V249.338Zm-10.63821,5.04341h.28409a2.4793,2.4793,0,0,1,1.83371.72169,3.18084,3.18084,0,0,1,.77951,2.06191,2.25843,2.25843,0,0,1-.2092.9964,3.09232,3.09232,0,0,1-.62592.866,2.656,2.656,0,0,1-1.94848.8064,2.70121,2.70121,0,0,1-2.014-4.58839A2.41627,2.41627,0,0,1,267.9545,254.38141Zm1.872,11.32129v29.3034h-3.64762V265.7027ZM249.1302,293.449V289.0794a10.02227,10.02227,0,0,0,2.5455,2.1464,5.4135,5.4135,0,0,0,2.717.7506,4.503,4.503,0,0,0,2.96219-1.434,4.10318,4.10318,0,0,0,1.179-2.878c0-1.89131-.96982-3.72451-2.89731-5.48111l-2.91629-2.7263a16.20071,16.20071,0,0,1-2.03331-2.2312,7.00614,7.00614,0,0,1-1.14009-2.1654,7.79966,7.79966,0,0,1-.41671-2.736,7.66618,7.66618,0,0,1,.5414-3.00239,5.68119,5.68119,0,0,1,1.6339-2.19291,7.07193,7.07193,0,0,1,4.83421-1.7584,8.26673,8.26673,0,0,1,5.3754,1.80461v4.5694h-.1131a5.73639,5.73639,0,0,0-4.7883-2.89731h-.474a3.31982,3.31982,0,0,0-2.45,1.3672,3.76662,3.76662,0,0,0-.7217,2.1657v.3342a4.32752,4.32752,0,0,0,.7773,2.5072,8.66938,8.66938,0,0,0,1.94679,2.1175c.22881.1995.77022.68341,1.6436,1.44371.68341.59919,1.18821,1.01559,1.50122,1.2826a9.04615,9.04615,0,0,1,3.59028,7.00959,8.33981,8.33981,0,0,1-2.09839,5.74611,8.04256,8.04256,0,0,1-5.5004,2.65919h-.33189a7.89969,7.89969,0,0,1-2.22321-.41669A8.30214,8.30214,0,0,1,249.1302,293.449Zm-7.664-25.7417V265.7027h3.8089v29.3034h-3.8089v-2.22319h-.1154a7.68928,7.68928,0,0,1-2.5265,2.22319,6.22517,6.22517,0,0,1-2.3366.4743h-.5607a4.53682,4.53682,0,0,1-3.76069-1.6436,11.38839,11.38839,0,0,1-1.9469-4.81519,34.17168,34.17168,0,0,1-.48381-4.2928c-.12481-1.89131-.18061-3.55151-.18061-4.99551l.27442-4.8438a12.80683,12.80683,0,0,1,.1998-2.3097,20.51235,20.51235,0,0,1,.55079-2.3077,6.887,6.887,0,0,1,2.0333-3.4863,4.96311,4.96311,0,0,1,1.76629-1.0905,6.82315,6.82315,0,0,1,2.41341-.3804h.2168A5.56232,5.56232,0,0,1,241.4662,267.70731Zm.4357,11.333q0-10.71586-4.0836-10.715h-.1134a3.02219,3.02219,0,0,0-2.158.7988,4.81233,4.81233,0,0,0-1.2612,2.28841,32.0878,32.0878,0,0,0-.80842,7.9889v1.33819c-.0576.44711-.09379.779-.11309.9981a35.74177,35.74177,0,0,0,.2458,4.3583,26.87376,26.87376,0,0,0,.7217,3.6572c.5028,1.8335,1.47261,2.755,2.897,2.755h.4762a3.55686,3.55686,0,0,0,3.4463-3.02939,32.42805,32.42805,0,0,0,.5415-4.21791C241.8364,283.4272,241.9019,281.3576,241.9019,279.04031ZM223.5708,265.7027h3.8667L217.283,306.1375h-3.8571l3.02-11.9299-7.0092-28.5049H213.19l4.8898,23.5956h.2191q.927-5.08875,2.57441-11.74Zm-15.7567,0v3.477h-3.0583v25.8264h-3.7054V269.1797h-3.0873v-3.477h3.0873v-7.9863h3.7054v7.9863Zm-17.2386,2.00461V265.7027h3.8092v29.3034h-3.8092v-2.22319h-.1151a7.68978,7.68978,0,0,1-2.52681,2.22319,6.22245,6.22245,0,0,1-2.33628.4743h-.56041a4.53766,4.53766,0,0,1-3.7613-1.6436,11.39911,11.39911,0,0,1-1.9468-4.81519,34.26333,34.26333,0,0,1-.48391-4.2928c-.12469-1.89131-.18029-3.55151-.18029-4.99551l.2747-4.8438a12.80937,12.80937,0,0,1,.19949-2.3097,20.39337,20.39337,0,0,1,.55111-2.3077,6.88218,6.88218,0,0,1,2.033-3.4863,4.96389,4.96389,0,0,1,1.7665-1.0905,6.82173,6.82173,0,0,1,2.4129-.3804h.2171A5.56167,5.56167,0,0,1,190.5755,267.70731Zm.4357,11.333q0-10.71586-4.0836-10.715h-.1131a3.021,3.021,0,0,0-2.1577.7988,4.81378,4.81378,0,0,0-1.2617,2.28841,32.11532,32.11532,0,0,0-.8079,7.9889v1.33819c-.0581.44711-.0944.779-.1137.9981a35.8646,35.8646,0,0,0,.2458,4.3583,26.87136,26.87136,0,0,0,.722,3.6572c.5031,1.8335,1.47259,2.755,2.89729,2.755h.47591a3.55625,3.55625,0,0,0,3.4461-3.02939,32.32426,32.32426,0,0,0,.5414-4.21791C190.9463,283.4272,191.0112,281.3576,191.0112,279.04031Zm-38.772-26.9958h3.4291l5.3682,36.284h.2265a26.2765,26.2765,0,0,1,.21851-3.11581c.0383-.3322.23819-1.7277.5894-4.1794.27459-1.9758.532-3.723.7605-5.22429.23579-1.49921.41668-2.59171.54139-3.25581l.7024-4.0088,1.2153-6.86749,1.6727-9.6324h3.4288l5.23331,42.96159H171.7588l-.712-7.9021-.8833-9.1007c-.11341-1.01529-.30361-2.7626-.5896-5.2333-.19991-1.8507-.3512-3.314-.455-4.3775-.0961-1.06529-.1516-2.033-.1516-2.90669-.1999-1.9848-.33389-3.35391-.39011-4.11421-.05719-.7585-.08589-1.46089-.08589-2.08879h-.2191a26.46025,26.46025,0,0,1-.1709,2.99109c-.1038,1.008-.303,2.4134-.57769,4.199-.27642,1.79491-.56041,3.54411-.83712,5.24291q-.08367.58514-.74119,4.076c-.4357,2.33631-.9868,5.4411-1.6509,9.3364l-1.67221,9.8779H159.3638l-5.3391-35.72329h-.11309v.60859c0,.4067-.0578,1.3382-.1709,2.81081-.10381,1.463-.16161,2.71649-.16161,3.75139q-.46935,5.2869-1.03461,9.2999l-.73139,5.8402-.5703,4.8728-.722,5.56551-.36051,2.97409H146.2088Z"/><path class="cls-2" d="M502.8233,188.03711l-.05041-53.44241-12.32559.01132-.01929-21.289,48.03311-.0448.01917,21.28869-12.54609.0119.05048,53.44159Zm-72.59781.06909-.04449-47.6087a28.81175,28.81175,0,0,1,7.78049-20.09711q7.80285-8.5051,20.6961-8.5166l.87531-.00058a29.30822,29.30822,0,0,1,12.68481,2.855,27.00342,27.00342,0,0,1,11.01709,9.9324c2.87921,4.42771,4.30329,9.913,4.31009,16.45481l.04361,46.92671-23.3739.02069-.02179-23.0168-7.0509.008-.01822-18.9944,7.05261-.00629-.0076-7.05092a5.62174,5.62174,0,0,0-1.51739-4.166,5.318,5.318,0,0,0-3.9733-1.51059,4.87634,4.87634,0,0,0-3.596,1.51678,5.62,5.62,0,0,0-1.51089,4.16891l.0462,49.06209Zm-94.19329.0885,4.73419-57.8356a28.216,28.216,0,0,1,1.26-8.7117,15.7025,15.7025,0,0,1,3.1337-5.54028c2.5234-2.74933,6.37561-4.12271,11.52169-4.12751l.67182-.0003c4.94079-.00461,8.4642.84158,10.55,2.57471a14.10619,14.10619,0,0,1,4.3942,7.84707l6.5415,25.25562,5.57352-23.02191a22.22,22.22,0,0,1,3.8971-8.6612,10.20168,10.20168,0,0,1,5.0754-3.29611l3.6984-.5239,4.16888-.21569q7.16835-.0081,11.23032,4.0122c2.70789,2.66849,4.0643,6.6398,4.0686,11.878l5.08329,60.28521-22.55811.0213L396.381,143.4558l-9.36972,38.5829a7.62269,7.62269,0,0,1-2.965,4.54451,8.63007,8.63007,0,0,1-5.36539,1.7827,8.82669,8.82669,0,0,1-4.80762-1.4417,6.50947,6.50947,0,0,1-2.98-4.0363l-9.80279-39.39841-2.50071,44.6839Zm-39.25589-19.4326-.01331-14.77589,29.37891-.02691.015,14.77361ZM233.2729,151.28931a13.70057,13.70057,0,0,0,4.3906,10.59509,16.8262,16.8262,0,0,0,4.629,3.0583,15.00648,15.00648,0,0,0,5.38659.9892,15.62059,15.62059,0,0,0,10.8069-4.0677c2.92331-2.622,4.37381-6.2892,4.369-11.0355-.00372-4.6775-1.4443-8.31739-4.31381-10.89221a15.29793,15.29793,0,0,0-10.567-3.85928,14.704,14.704,0,0,0-10.33,4.0578C234.72031,142.84351,233.2681,146.552,233.2729,151.28931Zm-23.85949-.92151a37.77892,37.77892,0,0,1,4.61819-17.66239,40.01135,40.01135,0,0,1,13.3407-14.72689,35.5731,35.5731,0,0,1,20.3573-5.89753,38.51146,38.51146,0,0,1,20.15489,5.25492,37.11332,37.11332,0,0,1,13.82831,14.4899,40.507,40.507,0,0,1,5.00229,19.4136,36.48612,36.48612,0,0,1-3.22669,15.289,35.64938,35.64938,0,0,1-8.6477,11.95761,42.99,42.99,0,0,1-12.47809,8.04979,39.047,39.047,0,0,1-7.04181,2.2352,33.63234,33.63234,0,0,1-6.8383.8076h-1.1908a36.709,36.709,0,0,1-17.74721-4.73729,38.53438,38.53438,0,0,1-20.13108-34.47351ZM143.7253,188.37471l-.07109-74.73262,23.178-.02069.02521,26.7171.5188.10971c.83509-.00171,1.56559-.6832,2.18438-2.03641a42.81843,42.81843,0,0,0,2.18862-6.43148l6.31048-18.36942,23.4261-.02319L195.6076,131.7623a103.003,103.003,0,0,1-3.6488,9.6573,11.941,11.941,0,0,1-4.2131,5.11661,17.824,17.824,0,0,1,4.80751,2.0795,16.49393,16.49393,0,0,1,4.86909,4.64709,12.38205,12.38205,0,0,1,2.1852,7.46671l.0253,27.59269-23.45079.02221-.02352-25.2448q-.00135-3.4446-2.35049-4.37961a24.8414,24.8414,0,0,0-6.93331-.83479l.029,30.4671Z"/><path class="cls-3" d="M80.3271,194.2254a57.80756,57.80756,0,0,1-15.2765-16.14979,54.26824,54.26824,0,0,1-6.2952-14.1976,55.742,55.742,0,0,1-1.9505-16.1232,59.90064,59.90064,0,0,1,2.1906-15.5378,61.17549,61.17549,0,0,1,5.7804-13.6044A53.47555,53.47555,0,0,1,81.5077,100.5542a62.95525,62.95525,0,0,1,19.6157-8.53369,67.39769,67.39769,0,0,1,14.9998-1.74921l2.0007.03461,11.8378.20178-.2494,14.47031-12.4637-.2135a45.17843,45.17843,0,0,0-16.5784,2.62442,45.98219,45.98219,0,0,0-13.9556,8.11157Q74.55575,125.83954,73.1523,137.8154l55.9823.9581-.2518,14.79851-55.9837-.9561q.9678,13.61265,10.9089,25.28869a36.18321,36.18321,0,0,0,28.0052,13.3566l16.41879.2803-.161,9.4303c43.2952,1.4191,84.4787-8.8063,130.72679-15.0576,57.62891-7.2377,106.76492-9.3325,163.6778,8.29221l2.47461-6.2206c16.513.74689,28.48541,12.91719,41.239,23.127l-4.8761,12.25839c-16.28082-1.34019-33.72861.25171-46.2464-10.5437l3.14868-7.91409c-29.07269-5.59641-56.07608-13.20491-86.9978-12.9917-27.29678.1958-51.09759,3.80719-77.70158,10.05249-18.7668,4.4118-35.97481,8.05771-56.22551,9.8127a208.70221,208.70221,0,0,1-28.7025.48381c-7.0994-.3591-14.6563-1.07711-22.7795-2.2294q-6.04756-.85472-12.5348-2.048-2.5227-.46394-5.12419-.9834c-1.726-.3435-3.48431-.7064-5.26251-1.0845l-8.7392-.1517a59.58162,59.58162,0,0,1-27.2276-7.4664,60.87741,60.87741,0,0,1-5.6197-3.40219Z"/></svg>